<?xml version="1.0" encoding="UTF-8" standalone="no"?>
<!-- Created with Inkscape (http://www.inkscape.org/) -->

<svg
   xmlns:dc="http://purl.org/dc/elements/1.1/"
   xmlns:cc="http://creativecommons.org/ns#"
   xmlns:rdf="http://www.w3.org/1999/02/22-rdf-syntax-ns#"
   xmlns:svg="http://www.w3.org/2000/svg"
   xmlns="http://www.w3.org/2000/svg"
   xmlns:sodipodi="http://sodipodi.sourceforge.net/DTD/sodipodi-0.dtd"
   xmlns:inkscape="http://www.inkscape.org/namespaces/inkscape"
   id="svg2"
   version="1.1"
   inkscape:version="0.91 r13725"
   xml:space="preserve"
   width="920.76648"
   height="87.062622"
   viewBox="0 0 920.76648 87.062622"
   sodipodi:docname="cpHeader.svg"
   inkscape:export-filename="C:\Users\annarose\projects\chrissSite\img\header.png"
   inkscape:export-xdpi="121.2"
   inkscape:export-ydpi="121.2"><metadata
     id="metadata8"><rdf:RDF><cc:Work
         rdf:about=""><dc:format>image/svg+xml</dc:format><dc:type
           rdf:resource="http://purl.org/dc/dcmitype/StillImage" /><dc:title /></cc:Work></rdf:RDF></metadata><defs
     id="defs6"><clipPath
       clipPathUnits="userSpaceOnUse"
       id="clipPath16"><path
         d="M 0,612 792,612 792,0 0,0 0,612 Z"
         id="path18"
         inkscape:connector-curvature="0" /></clipPath></defs><sodipodi:namedview
     pagecolor="#ffffff"
     bordercolor="#666666"
     borderopacity="1"
     objecttolerance="10"
     gridtolerance="10"
     guidetolerance="10"
     inkscape:pageopacity="0"
     inkscape:pageshadow="2"
     inkscape:window-width="1304"
     inkscape:window-height="745"
     id="namedview4"
     showgrid="false"
     inkscape:zoom="0.65583316"
     inkscape:cx="522.01841"
     inkscape:cy="101.81073"
     inkscape:window-x="-8"
     inkscape:window-y="-8"
     inkscape:window-maximized="1"
     inkscape:current-layer="g10"
     fit-margin-top="0"
     fit-margin-left="0"
     fit-margin-right="0"
     fit-margin-bottom="0" /><g
     id="g10"
     inkscape:groupmode="layer"
     inkscape:label="CenPhotoText"
     transform="matrix(1.25,0,0,-1.25,-46.326375,550.14125)"><g
       inkscape:export-ydpi="121.2"
       inkscape:export-xdpi="121.2"
       style="fill:#a23f3e;fill-opacity:1"
       id="g4189"
       transform="translate(1.7250894,-3.4501789)"><g
         style="fill:#a23f3e;fill-opacity:1"
         clip-path="url(#clipPath16)"
         id="g4191"><g
           style="fill:#a23f3e;fill-opacity:1"
           transform="translate(77.1201,418.6938)"
           id="g4193" /><g
           style="fill:#a23f3e;fill-opacity:1"
           transform="translate(66.6885,370.4629)"
           id="g4197" /><g
           style="fill:#a23f3e;fill-opacity:1"
           transform="translate(120.394,402.145)"
           id="g4201" /><g
           style="fill:#a23f3e;fill-opacity:1"
           transform="translate(169.3188,407.6592)"
           id="g4205" /><g
           style="fill:#a23f3e;fill-opacity:1"
           transform="translate(188.791,393.4907)"
           id="g4209" /><g
           style="fill:#a23f3e;fill-opacity:1"
           transform="translate(219.71,414.2896)"
           id="g4213" /><g
           style="fill:#a23f3e;fill-opacity:1"
           transform="translate(248.1157,393.9795)"
           id="g4217" /><g
           style="fill:#a23f3e;fill-opacity:1"
           transform="translate(272.7524,428.7368)"
           id="g4221" /><g
           style="fill:#a23f3e;fill-opacity:1"
           transform="translate(287.7588,395.375)"
           id="g4225" /><g
           style="fill:#a23f3e;fill-opacity:1"
           transform="translate(332.1479,407.6592)"
           id="g4229" /><g
           style="fill:#a23f3e;fill-opacity:1"
           transform="translate(346.1763,414.2896)"
           id="g4233" /><g
           style="fill:#a23f3e;fill-opacity:1"
           transform="translate(383.0972,403.1226)"
           id="g4237" /><g
           style="fill:#a23f3e;fill-opacity:1"
           transform="translate(402.9873,393.4907)"
           id="g4241" /><g
           style="fill:#a23f3e;fill-opacity:1"
           transform="translate(437.8848,395.375)"
           id="g4245"><path
             inkscape:connector-curvature="0"
             id="path4247"
             style="fill:#a23f3e;fill-opacity:1;fill-rule:nonzero;stroke:none"
             d="m 0,0 c 0,-3.769 4.327,-6.351 9.073,-6.351 6.421,0 9.143,6.142 9.143,11.656 0,6.351 -3.21,14.098 -10.609,14.098 C 0.488,19.403 -0.07,14.029 0,13.889 L 0,0 Z m 0,-16.262 c 0,-4.606 6.421,-2.861 6.421,-4.536 0,-0.838 -0.488,-0.908 -1.326,-0.908 -0.907,0 -2.582,0.28 -7.259,0.28 -2.722,0 -4.746,-0.28 -5.514,-0.28 -0.628,0 -1.047,0.14 -1.047,0.768 0,1.815 3.63,0.698 3.63,4.956 l 0,31.128 c 0,4.187 -4.746,2.373 -4.746,3.838 0,0.419 0.279,0.698 0.628,0.768 5.374,1.256 6.77,3.49 8.375,3.49 0.419,0 0.838,-0.419 0.838,-1.117 l 0,-4.048 c 4.257,3.978 7.677,4.606 9.562,4.606 8.235,0 12.493,-6.491 12.493,-14.168 0,-6.421 -4.048,-16.541 -14.867,-16.541 -2.512,0 -4.955,0.768 -7.188,1.884 l 0,-10.12 z" /></g><g
           style="fill:#a23f3e;fill-opacity:1"
           transform="translate(471.3857,413.103)"
           id="g4249"><path
             inkscape:connector-curvature="0"
             id="path4251"
             style="fill:#a23f3e;fill-opacity:1;fill-rule:nonzero;stroke:none"
             d="m 0,0 c 2.652,2.512 6.072,4.955 10.051,4.955 8.933,0 11.655,-7.747 11.655,-13.749 l 0,-11.656 c 0,-3.629 5.583,-2.163 5.583,-3.908 0,-0.768 -0.628,-0.908 -1.395,-0.908 -1.256,0 -3.211,0.28 -5.863,0.28 -2.722,0 -4.956,-0.28 -5.723,-0.28 -0.698,0 -1.117,0.21 -1.117,0.768 0,1.047 3.42,1.047 3.42,3.56 l 0,12.772 c 0,8.654 -6.003,10.26 -8.445,10.26 C 5.025,2.094 0,-0.628 0,-4.188 l 0,-14.726 c 0,-6.003 6.142,-4.048 6.142,-5.375 0,-0.837 -0.349,-0.977 -1.187,-0.977 -1.465,0 -4.955,0.28 -7.118,0.28 -2.164,0 -5.235,-0.28 -6.352,-0.28 -0.488,0 -0.698,0.349 -0.698,0.699 0,1.395 4.118,0.628 4.118,4.047 l 0,39.434 c 0,4.188 -5.374,2.373 -5.374,3.838 0,0.419 0.209,0.699 0.559,0.769 5.095,0.977 7.468,3.489 9.072,3.489 C -0.419,27.01 0,26.591 0,25.893 L 0,0 Z" /></g><g
           style="fill:#a23f3e;fill-opacity:1"
           transform="translate(525.0576,401.4473)"
           id="g4253"><path
             inkscape:connector-curvature="0"
             id="path4255"
             style="fill:#a23f3e;fill-opacity:1;fill-rule:nonzero;stroke:none"
             d="m 0,0 c 0,7.189 -3.001,15.076 -11.306,15.076 -6.84,0 -9.632,-6.003 -9.632,-11.935 0,-6.84 3.21,-15.774 11.376,-15.774 C -3.698,-12.633 0,-8.654 0,0 m -25.823,0.698 c 0,8.585 6.77,15.913 15.564,15.913 5.304,0 15.145,-2.583 15.145,-15.564 0,-8.585 -6.49,-15.145 -15.075,-15.145 -9.074,0 -15.634,5.374 -15.634,14.796" /></g><g
           style="fill:#a23f3e;fill-opacity:1"
           transform="translate(535.876,414.2896)"
           id="g4257"><path
             inkscape:connector-curvature="0"
             id="path4259"
             style="fill:#a23f3e;fill-opacity:1;fill-rule:nonzero;stroke:none"
             d="m 0,0 c -3.28,0 -3.769,0 -3.769,0.488 0,0.559 1.746,1.745 5.305,5.654 1.396,1.675 2.094,3.21 2.652,3.21 0.977,0 0.908,-1.466 0.908,-6.491 l 7.676,0 c 1.746,0 2.513,1.187 2.722,1.187 0.35,0 0.489,-0.349 0.489,-0.559 0,-0.279 -0.21,-0.628 -0.419,-0.977 L 14.168,0 5.096,0 l 0,-20.31 c 0.138,-2.862 2.093,-4.188 4.884,-4.188 3.7,0 4.747,1.605 5.933,1.605 0.279,0 0.559,-0.069 0.559,-0.628 0,-1.046 -3.769,-3.419 -8.655,-3.419 C 4.606,-26.94 0,-26.033 0,-18.845 L 0,0 Z" /></g><g
           style="fill:#a23f3e;fill-opacity:1"
           transform="translate(579.1475,401.4473)"
           id="g4261"><path
             inkscape:connector-curvature="0"
             id="path4263"
             style="fill:#a23f3e;fill-opacity:1;fill-rule:nonzero;stroke:none"
             d="m 0,0 c 0,7.189 -3.001,15.076 -11.306,15.076 -6.84,0 -9.632,-6.003 -9.632,-11.935 0,-6.84 3.21,-15.774 11.376,-15.774 C -3.698,-12.633 0,-8.654 0,0 m -25.823,0.698 c 0,8.585 6.77,15.913 15.564,15.913 5.304,0 15.145,-2.583 15.145,-15.564 0,-8.585 -6.49,-15.145 -15.075,-15.145 -9.074,0 -15.634,5.374 -15.634,14.796" /></g><g
           style="fill:#a23f3e;fill-opacity:1"
           transform="translate(599.1094,416.5229)"
           id="g4265"><path
             inkscape:connector-curvature="0"
             id="path4267"
             style="fill:#a23f3e;fill-opacity:1;fill-rule:nonzero;stroke:none"
             d="m 0,0 c -5.164,0 -6.84,-4.048 -6.84,-8.585 0,-4.397 1.954,-9.422 7.119,-9.422 4.886,0 6.84,3.839 6.84,8.305 C 7.119,-5.305 5.234,0 0,0 m -1.047,-40.969 c 9.562,0 11.586,4.397 11.586,6.909 0,2.932 -2.442,3.071 -9.632,3.281 -5.862,0.209 -6.769,0.697 -7.328,0.697 -2.163,0 -3.42,-3.21 -3.42,-5.024 0,-4.677 4.955,-5.863 8.794,-5.863 m 10.61,39.713 c 3.349,0 3.698,4.466 4.675,4.466 0.628,0 0.559,-0.698 0.559,-1.116 0,-5.375 -1.047,-5.654 -3.63,-7.259 0.279,-1.187 0.489,-2.443 0.489,-3.699 0,-6.631 -5.235,-10.678 -11.586,-10.678 -3.559,0 -3.908,0.558 -4.816,0.558 -1.675,0 -3.35,-2.233 -3.35,-3.839 0,-0.558 -0.558,-3.35 8.236,-3.35 5.863,0 13.75,0.698 13.75,-6.211 0,-4.398 -3.7,-10.19 -15.356,-10.19 -4.467,0 -11.795,1.675 -11.795,7.398 0,2.861 2.653,4.955 5.095,5.863 -1.954,0.767 -2.651,3.14 -2.651,5.513 0,2.792 3.559,5.654 3.629,5.654 l 0,0.139 c -2.862,1.745 -4.467,5.165 -4.467,8.585 0,6.351 5.025,10.957 11.236,10.957 5.793,0 8.026,-2.791 9.982,-2.791" /></g><g
           style="fill:#a23f3e;fill-opacity:1"
           transform="translate(626.3291,393.9795)"
           id="g4269"><path
             inkscape:connector-curvature="0"
             id="path4271"
             style="fill:#a23f3e;fill-opacity:1;fill-rule:nonzero;stroke:none"
             d="m 0,0 c 0,-6.491 6.212,-3.141 6.212,-5.374 0,-0.628 -0.35,-0.768 -1.117,-0.768 -0.977,0 -2.653,0.279 -6.561,0.279 -4.676,0 -5.932,-0.279 -6.421,-0.279 -0.558,0 -0.767,0.209 -0.767,0.628 0,1.466 3.559,1.187 3.559,4.048 l 0,18.007 c 0,4.188 -5.025,2.373 -5.025,3.839 0,0.418 0.558,0.698 0.907,0.767 5.374,1.257 6.771,3.49 8.375,3.49 0.419,0 0.838,-0.419 0.838,-1.116 l 0,-5.235 0.14,0 c 1.465,2.024 3.978,5.793 6.909,5.793 1.466,0 4.606,-1.815 4.606,-3.141 0,-1.047 -1.675,-3.141 -2.512,-3.141 -1.327,0 -2.094,1.605 -4.607,1.605 C 1.675,19.402 0,16.192 0,15.285 L 0,0 Z" /></g><g
           style="fill:#a23f3e;fill-opacity:1"
           transform="translate(658.5039,403.1226)"
           id="g4273"><path
             inkscape:connector-curvature="0"
             id="path4275"
             style="fill:#a23f3e;fill-opacity:1;fill-rule:nonzero;stroke:none"
             d="m 0,0 c -4.467,-0.978 -12.981,-2.094 -12.981,-8.236 0,-3.978 2.023,-5.514 5.722,-5.514 2.513,0 7.259,1.955 7.259,5.654 L 0,0 Z m 0,7.049 c 0,3.629 -2.861,6.072 -7.188,6.072 -3.351,0 -6.073,-0.349 -6.073,-4.187 0,-1.048 0.419,-2.095 0.419,-2.862 0,-0.768 -0.21,-1.326 -1.536,-1.326 -1.186,0 -3.28,1.046 -3.28,2.303 0.07,3.21 3.978,8.096 11.725,7.887 4.328,0 11.028,-1.257 11.028,-7.189 l 0,-14.447 c 0,-2.373 -0.628,-6.491 3.001,-6.491 0.279,0 0.907,0.139 1.186,0.139 0.35,0 0.907,0 0.907,-0.488 0,-1.466 -3.07,-1.745 -4.047,-1.745 -2.722,0 -4.537,1.256 -5.444,3.559 -2.931,-2.512 -6.77,-4.047 -10.678,-4.047 -4.538,0 -7.539,1.674 -7.539,6.63 0,3.699 1.187,8.096 17.519,10.818 l 0,5.374 z" /></g><g
           style="fill:#a23f3e;fill-opacity:1"
           transform="translate(678.1846,395.375)"
           id="g4277"><path
             inkscape:connector-curvature="0"
             id="path4279"
             style="fill:#a23f3e;fill-opacity:1;fill-rule:nonzero;stroke:none"
             d="m 0,0 c 0,-3.769 4.327,-6.351 9.073,-6.351 6.421,0 9.143,6.142 9.143,11.656 0,6.351 -3.21,14.098 -10.609,14.098 C 0.488,19.403 -0.07,14.029 0,13.889 L 0,0 Z m 0,-16.262 c 0,-4.606 6.421,-2.861 6.421,-4.536 0,-0.838 -0.488,-0.908 -1.326,-0.908 -0.907,0 -2.582,0.28 -7.259,0.28 -2.722,0 -4.746,-0.28 -5.514,-0.28 -0.628,0 -1.047,0.14 -1.047,0.768 0,1.815 3.63,0.698 3.63,4.956 l 0,31.128 c 0,4.187 -4.746,2.373 -4.746,3.838 0,0.419 0.279,0.698 0.628,0.768 5.374,1.256 6.77,3.49 8.375,3.49 0.419,0 0.838,-0.419 0.838,-1.117 l 0,-4.048 c 4.257,3.978 7.677,4.606 9.562,4.606 8.235,0 12.493,-6.491 12.493,-14.168 0,-6.421 -4.048,-16.541 -14.867,-16.541 -2.512,0 -4.955,0.768 -7.188,1.884 l 0,-10.12 z" /></g><g
           style="fill:#a23f3e;fill-opacity:1"
           transform="translate(711.6865,413.103)"
           id="g4281"><path
             inkscape:connector-curvature="0"
             id="path4283"
             style="fill:#a23f3e;fill-opacity:1;fill-rule:nonzero;stroke:none"
             d="m 0,0 c 2.652,2.512 6.072,4.955 10.051,4.955 8.933,0 11.655,-7.747 11.655,-13.749 l 0,-11.656 c 0,-3.629 5.583,-2.163 5.583,-3.908 0,-0.768 -0.628,-0.908 -1.395,-0.908 -1.256,0 -3.211,0.28 -5.863,0.28 -2.722,0 -4.956,-0.28 -5.723,-0.28 -0.698,0 -1.117,0.21 -1.117,0.768 0,1.047 3.42,1.047 3.42,3.56 l 0,12.772 c 0,8.654 -6.003,10.26 -8.445,10.26 C 5.025,2.094 0,-0.628 0,-4.188 l 0,-14.726 c 0,-6.003 6.142,-4.048 6.142,-5.375 0,-0.837 -0.349,-0.977 -1.187,-0.977 -1.465,0 -4.955,0.28 -7.118,0.28 -2.164,0 -5.235,-0.28 -6.352,-0.28 -0.488,0 -0.698,0.349 -0.698,0.699 0,1.395 4.118,0.628 4.118,4.047 l 0,39.434 c 0,4.188 -5.374,2.373 -5.374,3.838 0,0.419 0.209,0.699 0.559,0.769 5.095,0.977 7.468,3.489 9.072,3.489 C -0.419,27.01 0,26.591 0,25.893 L 0,0 Z" /></g><g
           style="fill:#a23f3e;fill-opacity:1"
           transform="translate(747.5605,374.1582)"
           id="g4285"><path
             inkscape:connector-curvature="0"
             id="path4287"
             style="fill:#a23f3e;fill-opacity:1;fill-rule:nonzero;stroke:none"
             d="m 0,0 c -0.069,-0.209 -1.326,-0.209 -2.303,-0.209 -0.977,0 -2.583,-0.07 -2.583,0.488 0,1.535 6.352,6.77 6.352,12.214 0,1.675 -0.768,3.21 -1.396,4.676 l -9.143,22.543 c -0.628,1.536 -3.281,1.605 -3.281,2.583 0,0.698 0.419,0.837 1.397,0.837 1.465,0 3.001,-0.279 4.885,-0.279 2.443,0 4.049,0.279 5.165,0.279 1.047,0 1.466,-0.139 1.466,-0.907 0,-1.466 -3.979,-0.07 -3.979,-2.862 0,-1.116 0.628,-2.163 0.488,-1.535 l -0.139,-0.14 7.468,-18.983 5.374,15.773 c 0.837,2.512 0.837,3.141 0.837,3.629 0,3.769 -4.466,2.722 -4.466,4.258 0,0.698 0.837,0.767 2.093,0.767 0.838,0 1.955,-0.279 3.91,-0.279 1.604,0 2.861,0.279 3.559,0.279 0.837,0 1.326,-0.279 1.326,-0.837 0,-1.606 -2.373,0.14 -3.769,-4.048 L 0,0 Z" /></g></g></g><g
       id="g12"
       style="fill:#55bf55;fill-opacity:1"
       inkscape:export-xdpi="121.2"
       inkscape:export-ydpi="121.2"><g
         id="g14"
         clip-path="url(#clipPath16)"
         style="fill:#55bf55;fill-opacity:1"><g
           id="g20"
           transform="translate(77.1201,418.6938)"
           style="fill:#55bf55;fill-opacity:1" /><g
           id="g24"
           transform="translate(66.6885,370.4629)"
           style="fill:#55bf55;fill-opacity:1" /><g
           id="g28"
           transform="translate(120.394,402.145)"
           style="fill:#55bf55;fill-opacity:1" /><g
           id="g32"
           transform="translate(169.3188,407.6592)"
           style="fill:#55bf55;fill-opacity:1" /><g
           id="g36"
           transform="translate(188.791,393.4907)"
           style="fill:#55bf55;fill-opacity:1" /><g
           id="g40"
           transform="translate(219.71,414.2896)"
           style="fill:#55bf55;fill-opacity:1" /><g
           id="g44"
           transform="translate(248.1157,393.9795)"
           style="fill:#55bf55;fill-opacity:1" /><g
           id="g48"
           transform="translate(272.7524,428.7368)"
           style="fill:#55bf55;fill-opacity:1" /><g
           id="g52"
           transform="translate(287.7588,395.375)"
           style="fill:#55bf55;fill-opacity:1" /><g
           id="g56"
           transform="translate(332.1479,407.6592)"
           style="fill:#55bf55;fill-opacity:1" /><g
           id="g60"
           transform="translate(346.1763,414.2896)"
           style="fill:#55bf55;fill-opacity:1" /><g
           id="g64"
           transform="translate(383.0972,403.1226)"
           style="fill:#55bf55;fill-opacity:1" /><g
           id="g68"
           transform="translate(402.9873,393.4907)"
           style="fill:#55bf55;fill-opacity:1" /><g
           id="g72"
           transform="translate(437.8848,395.375)"
           style="fill:#55bf55;fill-opacity:1"><path
             d="m 0,0 c 0,-3.769 4.327,-6.351 9.073,-6.351 6.421,0 9.143,6.142 9.143,11.656 0,6.351 -3.21,14.098 -10.609,14.098 C 0.488,19.403 -0.07,14.029 0,13.889 L 0,0 Z m 0,-16.262 c 0,-4.606 6.421,-2.861 6.421,-4.536 0,-0.838 -0.488,-0.908 -1.326,-0.908 -0.907,0 -2.582,0.28 -7.259,0.28 -2.722,0 -4.746,-0.28 -5.514,-0.28 -0.628,0 -1.047,0.14 -1.047,0.768 0,1.815 3.63,0.698 3.63,4.956 l 0,31.128 c 0,4.187 -4.746,2.373 -4.746,3.838 0,0.419 0.279,0.698 0.628,0.768 5.374,1.256 6.77,3.49 8.375,3.49 0.419,0 0.838,-0.419 0.838,-1.117 l 0,-4.048 c 4.257,3.978 7.677,4.606 9.562,4.606 8.235,0 12.493,-6.491 12.493,-14.168 0,-6.421 -4.048,-16.541 -14.867,-16.541 -2.512,0 -4.955,0.768 -7.188,1.884 l 0,-10.12 z"
             style="fill:#55bf55;fill-opacity:1;fill-rule:nonzero;stroke:none"
             id="path74"
             inkscape:connector-curvature="0" /></g><g
           id="g76"
           transform="translate(471.3857,413.103)"
           style="fill:#55bf55;fill-opacity:1"><path
             d="m 0,0 c 2.652,2.512 6.072,4.955 10.051,4.955 8.933,0 11.655,-7.747 11.655,-13.749 l 0,-11.656 c 0,-3.629 5.583,-2.163 5.583,-3.908 0,-0.768 -0.628,-0.908 -1.395,-0.908 -1.256,0 -3.211,0.28 -5.863,0.28 -2.722,0 -4.956,-0.28 -5.723,-0.28 -0.698,0 -1.117,0.21 -1.117,0.768 0,1.047 3.42,1.047 3.42,3.56 l 0,12.772 c 0,8.654 -6.003,10.26 -8.445,10.26 C 5.025,2.094 0,-0.628 0,-4.188 l 0,-14.726 c 0,-6.003 6.142,-4.048 6.142,-5.375 0,-0.837 -0.349,-0.977 -1.187,-0.977 -1.465,0 -4.955,0.28 -7.118,0.28 -2.164,0 -5.235,-0.28 -6.352,-0.28 -0.488,0 -0.698,0.349 -0.698,0.699 0,1.395 4.118,0.628 4.118,4.047 l 0,39.434 c 0,4.188 -5.374,2.373 -5.374,3.838 0,0.419 0.209,0.699 0.559,0.769 5.095,0.977 7.468,3.489 9.072,3.489 C -0.419,27.01 0,26.591 0,25.893 L 0,0 Z"
             style="fill:#55bf55;fill-opacity:1;fill-rule:nonzero;stroke:none"
             id="path78"
             inkscape:connector-curvature="0" /></g><g
           id="g80"
           transform="translate(525.0576,401.4473)"
           style="fill:#55bf55;fill-opacity:1"><path
             d="m 0,0 c 0,7.189 -3.001,15.076 -11.306,15.076 -6.84,0 -9.632,-6.003 -9.632,-11.935 0,-6.84 3.21,-15.774 11.376,-15.774 C -3.698,-12.633 0,-8.654 0,0 m -25.823,0.698 c 0,8.585 6.77,15.913 15.564,15.913 5.304,0 15.145,-2.583 15.145,-15.564 0,-8.585 -6.49,-15.145 -15.075,-15.145 -9.074,0 -15.634,5.374 -15.634,14.796"
             style="fill:#55bf55;fill-opacity:1;fill-rule:nonzero;stroke:none"
             id="path82"
             inkscape:connector-curvature="0" /></g><g
           id="g84"
           transform="translate(535.876,414.2896)"
           style="fill:#55bf55;fill-opacity:1"><path
             d="m 0,0 c -3.28,0 -3.769,0 -3.769,0.488 0,0.559 1.746,1.745 5.305,5.654 1.396,1.675 2.094,3.21 2.652,3.21 0.977,0 0.908,-1.466 0.908,-6.491 l 7.676,0 c 1.746,0 2.513,1.187 2.722,1.187 0.35,0 0.489,-0.349 0.489,-0.559 0,-0.279 -0.21,-0.628 -0.419,-0.977 L 14.168,0 5.096,0 l 0,-20.31 c 0.138,-2.862 2.093,-4.188 4.884,-4.188 3.7,0 4.747,1.605 5.933,1.605 0.279,0 0.559,-0.069 0.559,-0.628 0,-1.046 -3.769,-3.419 -8.655,-3.419 C 4.606,-26.94 0,-26.033 0,-18.845 L 0,0 Z"
             style="fill:#55bf55;fill-opacity:1;fill-rule:nonzero;stroke:none"
             id="path86"
             inkscape:connector-curvature="0" /></g><g
           id="g88"
           transform="translate(579.1475,401.4473)"
           style="fill:#55bf55;fill-opacity:1"><path
             d="m 0,0 c 0,7.189 -3.001,15.076 -11.306,15.076 -6.84,0 -9.632,-6.003 -9.632,-11.935 0,-6.84 3.21,-15.774 11.376,-15.774 C -3.698,-12.633 0,-8.654 0,0 m -25.823,0.698 c 0,8.585 6.77,15.913 15.564,15.913 5.304,0 15.145,-2.583 15.145,-15.564 0,-8.585 -6.49,-15.145 -15.075,-15.145 -9.074,0 -15.634,5.374 -15.634,14.796"
             style="fill:#55bf55;fill-opacity:1;fill-rule:nonzero;stroke:none"
             id="path90"
             inkscape:connector-curvature="0" /></g><g
           id="g92"
           transform="translate(599.1094,416.5229)"
           style="fill:#55bf55;fill-opacity:1"><path
             d="m 0,0 c -5.164,0 -6.84,-4.048 -6.84,-8.585 0,-4.397 1.954,-9.422 7.119,-9.422 4.886,0 6.84,3.839 6.84,8.305 C 7.119,-5.305 5.234,0 0,0 m -1.047,-40.969 c 9.562,0 11.586,4.397 11.586,6.909 0,2.932 -2.442,3.071 -9.632,3.281 -5.862,0.209 -6.769,0.697 -7.328,0.697 -2.163,0 -3.42,-3.21 -3.42,-5.024 0,-4.677 4.955,-5.863 8.794,-5.863 m 10.61,39.713 c 3.349,0 3.698,4.466 4.675,4.466 0.628,0 0.559,-0.698 0.559,-1.116 0,-5.375 -1.047,-5.654 -3.63,-7.259 0.279,-1.187 0.489,-2.443 0.489,-3.699 0,-6.631 -5.235,-10.678 -11.586,-10.678 -3.559,0 -3.908,0.558 -4.816,0.558 -1.675,0 -3.35,-2.233 -3.35,-3.839 0,-0.558 -0.558,-3.35 8.236,-3.35 5.863,0 13.75,0.698 13.75,-6.211 0,-4.398 -3.7,-10.19 -15.356,-10.19 -4.467,0 -11.795,1.675 -11.795,7.398 0,2.861 2.653,4.955 5.095,5.863 -1.954,0.767 -2.651,3.14 -2.651,5.513 0,2.792 3.559,5.654 3.629,5.654 l 0,0.139 c -2.862,1.745 -4.467,5.165 -4.467,8.585 0,6.351 5.025,10.957 11.236,10.957 5.793,0 8.026,-2.791 9.982,-2.791"
             style="fill:#55bf55;fill-opacity:1;fill-rule:nonzero;stroke:none"
             id="path94"
             inkscape:connector-curvature="0" /></g><g
           id="g96"
           transform="translate(626.3291,393.9795)"
           style="fill:#55bf55;fill-opacity:1"><path
             d="m 0,0 c 0,-6.491 6.212,-3.141 6.212,-5.374 0,-0.628 -0.35,-0.768 -1.117,-0.768 -0.977,0 -2.653,0.279 -6.561,0.279 -4.676,0 -5.932,-0.279 -6.421,-0.279 -0.558,0 -0.767,0.209 -0.767,0.628 0,1.466 3.559,1.187 3.559,4.048 l 0,18.007 c 0,4.188 -5.025,2.373 -5.025,3.839 0,0.418 0.558,0.698 0.907,0.767 5.374,1.257 6.771,3.49 8.375,3.49 0.419,0 0.838,-0.419 0.838,-1.116 l 0,-5.235 0.14,0 c 1.465,2.024 3.978,5.793 6.909,5.793 1.466,0 4.606,-1.815 4.606,-3.141 0,-1.047 -1.675,-3.141 -2.512,-3.141 -1.327,0 -2.094,1.605 -4.607,1.605 C 1.675,19.402 0,16.192 0,15.285 L 0,0 Z"
             style="fill:#55bf55;fill-opacity:1;fill-rule:nonzero;stroke:none"
             id="path98"
             inkscape:connector-curvature="0" /></g><g
           id="g100"
           transform="translate(658.5039,403.1226)"
           style="fill:#55bf55;fill-opacity:1"><path
             d="m 0,0 c -4.467,-0.978 -12.981,-2.094 -12.981,-8.236 0,-3.978 2.023,-5.514 5.722,-5.514 2.513,0 7.259,1.955 7.259,5.654 L 0,0 Z m 0,7.049 c 0,3.629 -2.861,6.072 -7.188,6.072 -3.351,0 -6.073,-0.349 -6.073,-4.187 0,-1.048 0.419,-2.095 0.419,-2.862 0,-0.768 -0.21,-1.326 -1.536,-1.326 -1.186,0 -3.28,1.046 -3.28,2.303 0.07,3.21 3.978,8.096 11.725,7.887 4.328,0 11.028,-1.257 11.028,-7.189 l 0,-14.447 c 0,-2.373 -0.628,-6.491 3.001,-6.491 0.279,0 0.907,0.139 1.186,0.139 0.35,0 0.907,0 0.907,-0.488 0,-1.466 -3.07,-1.745 -4.047,-1.745 -2.722,0 -4.537,1.256 -5.444,3.559 -2.931,-2.512 -6.77,-4.047 -10.678,-4.047 -4.538,0 -7.539,1.674 -7.539,6.63 0,3.699 1.187,8.096 17.519,10.818 l 0,5.374 z"
             style="fill:#55bf55;fill-opacity:1;fill-rule:nonzero;stroke:none"
             id="path102"
             inkscape:connector-curvature="0" /></g><g
           id="g104"
           transform="translate(678.1846,395.375)"
           style="fill:#55bf55;fill-opacity:1"><path
             d="m 0,0 c 0,-3.769 4.327,-6.351 9.073,-6.351 6.421,0 9.143,6.142 9.143,11.656 0,6.351 -3.21,14.098 -10.609,14.098 C 0.488,19.403 -0.07,14.029 0,13.889 L 0,0 Z m 0,-16.262 c 0,-4.606 6.421,-2.861 6.421,-4.536 0,-0.838 -0.488,-0.908 -1.326,-0.908 -0.907,0 -2.582,0.28 -7.259,0.28 -2.722,0 -4.746,-0.28 -5.514,-0.28 -0.628,0 -1.047,0.14 -1.047,0.768 0,1.815 3.63,0.698 3.63,4.956 l 0,31.128 c 0,4.187 -4.746,2.373 -4.746,3.838 0,0.419 0.279,0.698 0.628,0.768 5.374,1.256 6.77,3.49 8.375,3.49 0.419,0 0.838,-0.419 0.838,-1.117 l 0,-4.048 c 4.257,3.978 7.677,4.606 9.562,4.606 8.235,0 12.493,-6.491 12.493,-14.168 0,-6.421 -4.048,-16.541 -14.867,-16.541 -2.512,0 -4.955,0.768 -7.188,1.884 l 0,-10.12 z"
             style="fill:#55bf55;fill-opacity:1;fill-rule:nonzero;stroke:none"
             id="path106"
             inkscape:connector-curvature="0" /></g><g
           id="g108"
           transform="translate(711.6865,413.103)"
           style="fill:#55bf55;fill-opacity:1"><path
             d="m 0,0 c 2.652,2.512 6.072,4.955 10.051,4.955 8.933,0 11.655,-7.747 11.655,-13.749 l 0,-11.656 c 0,-3.629 5.583,-2.163 5.583,-3.908 0,-0.768 -0.628,-0.908 -1.395,-0.908 -1.256,0 -3.211,0.28 -5.863,0.28 -2.722,0 -4.956,-0.28 -5.723,-0.28 -0.698,0 -1.117,0.21 -1.117,0.768 0,1.047 3.42,1.047 3.42,3.56 l 0,12.772 c 0,8.654 -6.003,10.26 -8.445,10.26 C 5.025,2.094 0,-0.628 0,-4.188 l 0,-14.726 c 0,-6.003 6.142,-4.048 6.142,-5.375 0,-0.837 -0.349,-0.977 -1.187,-0.977 -1.465,0 -4.955,0.28 -7.118,0.28 -2.164,0 -5.235,-0.28 -6.352,-0.28 -0.488,0 -0.698,0.349 -0.698,0.699 0,1.395 4.118,0.628 4.118,4.047 l 0,39.434 c 0,4.188 -5.374,2.373 -5.374,3.838 0,0.419 0.209,0.699 0.559,0.769 5.095,0.977 7.468,3.489 9.072,3.489 C -0.419,27.01 0,26.591 0,25.893 L 0,0 Z"
             style="fill:#55bf55;fill-opacity:1;fill-rule:nonzero;stroke:none"
             id="path110"
             inkscape:connector-curvature="0" /></g><g
           id="g112"
           transform="translate(747.5605,374.1582)"
           style="fill:#55bf55;fill-opacity:1"><path
             d="m 0,0 c -0.069,-0.209 -1.326,-0.209 -2.303,-0.209 -0.977,0 -2.583,-0.07 -2.583,0.488 0,1.535 6.352,6.77 6.352,12.214 0,1.675 -0.768,3.21 -1.396,4.676 l -9.143,22.543 c -0.628,1.536 -3.281,1.605 -3.281,2.583 0,0.698 0.419,0.837 1.397,0.837 1.465,0 3.001,-0.279 4.885,-0.279 2.443,0 4.049,0.279 5.165,0.279 1.047,0 1.466,-0.139 1.466,-0.907 0,-1.466 -3.979,-0.07 -3.979,-2.862 0,-1.116 0.628,-2.163 0.488,-1.535 l -0.139,-0.14 7.468,-18.983 5.374,15.773 c 0.837,2.512 0.837,3.141 0.837,3.629 0,3.769 -4.466,2.722 -4.466,4.258 0,0.698 0.837,0.767 2.093,0.767 0.838,0 1.955,-0.279 3.91,-0.279 1.604,0 2.861,0.279 3.559,0.279 0.837,0 1.326,-0.279 1.326,-0.837 0,-1.606 -2.373,0.14 -3.769,-4.048 L 0,0 Z"
             style="fill:#55bf55;fill-opacity:1;fill-rule:nonzero;stroke:none"
             id="path114"
             inkscape:connector-curvature="0" /></g></g></g><g
       transform="translate(1.7250894,81.349821)"
       id="g4347"
       style="fill:#a23f3e;fill-opacity:1"
       inkscape:export-xdpi="121.2"
       inkscape:export-ydpi="121.2"><g
         id="g4349"
         clip-path="url(#clipPath16)"
         style="fill:#a23f3e;fill-opacity:1"><g
           id="g4351"
           transform="translate(77.1201,418.6938)"
           style="fill:#a23f3e;fill-opacity:1"><path
             inkscape:export-ydpi="1215.11"
             inkscape:export-xdpi="1215.11"
             inkscape:connector-curvature="0"
             id="path4353"
             style="fill:#a23f3e;fill-opacity:1;fill-rule:nonzero;stroke:none"
             d="m 312.90171,7.82095 c 8.968,-0.28 13.938,-5.109 13.938,-5.109 3.228,-2.755 5.257,-6.339 5.257,-10.038 0,-9.731 -13.013,-17.354 -29.627,-17.354 -16.613,0 -29.627,7.623 -29.627,17.354 0,4.889 3.248,9.082 8.883,12.002 l 2.326,1.077 c 2.299,0.949 5.818,1.893 7.781,2.271 1.842,0.354 4.143,0.725 5.323,0.725 0.732,0 1.799,-0.633 1.883,-1.748 0.08,-1.062 -0.436,-1.961 -1.301,-2.144 -0.807,-0.171 -2.181,-0.547 -2.181,-0.547 -5.829,-1.806 -9.368,-6.086 -9.368,-11.511 0,-7.364 7.304,-13.354 16.281,-13.354 8.977,0 16.281,5.99 16.281,13.354 0,4.176 -1.796,10.325 -4.726,10.998 -0.285,0.023 -0.572,0.039 -0.861,0.048 -2.934,-0.225 -4.841,-0.942 -5.67,-2.134 -1.261,-1.809 -0.282,-5.183 0.58,-8.161 0.592,-2.04 1.15,-3.966 1.115,-5.654 -0.078,-3.636 -3.107,-6.275 -7.205,-6.275 -4.047,0 -7.166,2.681 -7.584,6.52 -0.541,4.956 1.084,9.954 4.457,13.715 0.765,0.853 1.6,1.621 2.492,2.301 0,0 4.886,3.872 11.553,3.664"
             sodipodi:nodetypes="ccssscccssccssscccccscscc" /></g><g
           id="g4355"
           transform="translate(66.6885,370.4629)"
           style="fill:#a23f3e;fill-opacity:1"><path
             inkscape:export-ydpi="1215.11"
             inkscape:export-xdpi="1215.11"
             inkscape:connector-curvature="0"
             id="path4357"
             style="fill:#a23f3e;fill-opacity:1;fill-rule:nonzero;stroke:none"
             d="m 312.90171,7.82095 0,0 c -0.67,0 -1.279,0.382 -1.573,0.981 l -4.601,9.422 c -0.277,0.569 -0.226,1.243 0.133,1.762 0.36,0.522 0.98,0.805 1.603,0.748 0.418,-0.039 0.84,-0.084 1.264,-0.131 1.047,-0.115 2.131,-0.232 3.174,-0.232 1.043,0 2.127,0.117 3.174,0.232 0.424,0.047 0.846,0.092 1.264,0.131 0.624,0.058 1.243,-0.226 1.603,-0.748 0.359,-0.519 0.41,-1.193 0.132,-1.762 l -4.601,-9.422 c -0.294,-0.599 -0.904,-0.981 -1.572,-0.981"
             sodipodi:nodetypes="cccccccscccccc" /></g><g
           id="g4359"
           transform="translate(120.394,402.145)"
           style="fill:#a23f3e;fill-opacity:1" /><g
           id="g4363"
           transform="translate(169.3188,407.6592)"
           style="fill:#a23f3e;fill-opacity:1" /><g
           id="g4367"
           transform="translate(188.791,393.4907)"
           style="fill:#a23f3e;fill-opacity:1" /><g
           id="g4371"
           transform="translate(219.71,414.2896)"
           style="fill:#a23f3e;fill-opacity:1" /><g
           id="g4375"
           transform="translate(248.1157,393.9795)"
           style="fill:#a23f3e;fill-opacity:1" /><g
           id="g4379"
           transform="translate(272.7524,428.7368)"
           style="fill:#a23f3e;fill-opacity:1" /><g
           id="g4383"
           transform="translate(287.7588,395.375)"
           style="fill:#a23f3e;fill-opacity:1" /><g
           id="g4387"
           transform="translate(332.1479,407.6592)"
           style="fill:#a23f3e;fill-opacity:1" /><g
           id="g4391"
           transform="translate(346.1763,414.2896)"
           style="fill:#a23f3e;fill-opacity:1" /><g
           id="g4395"
           transform="translate(383.0972,403.1226)"
           style="fill:#a23f3e;fill-opacity:1" /><g
           id="g4399"
           transform="translate(402.9873,393.4907)"
           style="fill:#a23f3e;fill-opacity:1" /><g
           id="g4403"
           transform="translate(437.8848,395.375)"
           style="fill:#a23f3e;fill-opacity:1" /><g
           id="g4407"
           transform="translate(471.3857,413.103)"
           style="fill:#a23f3e;fill-opacity:1" /><g
           id="g4411"
           transform="translate(525.0576,401.4473)"
           style="fill:#a23f3e;fill-opacity:1" /><g
           id="g4415"
           transform="translate(535.876,414.2896)"
           style="fill:#a23f3e;fill-opacity:1" /><g
           id="g4419"
           transform="translate(579.1475,401.4473)"
           style="fill:#a23f3e;fill-opacity:1" /><g
           id="g4423"
           transform="translate(599.1094,416.5229)"
           style="fill:#a23f3e;fill-opacity:1" /><g
           id="g4427"
           transform="translate(626.3291,393.9795)"
           style="fill:#a23f3e;fill-opacity:1" /><g
           id="g4431"
           transform="translate(658.5039,403.1226)"
           style="fill:#a23f3e;fill-opacity:1" /><g
           id="g4435"
           transform="translate(678.1846,395.375)"
           style="fill:#a23f3e;fill-opacity:1" /><g
           id="g4439"
           transform="translate(711.6865,413.103)"
           style="fill:#a23f3e;fill-opacity:1" /><g
           id="g4443"
           transform="translate(747.5605,374.1582)"
           style="fill:#a23f3e;fill-opacity:1" /></g></g><g
       inkscape:export-ydpi="121.2"
       inkscape:export-xdpi="121.2"
       style="fill:#55bf55;fill-opacity:1"
       id="g4447"
       transform="translate(0,84.8)"><g
         style="fill:#55bf55;fill-opacity:1"
         clip-path="url(#clipPath16)"
         id="g4449"><g
           style="fill:#55bf55;fill-opacity:1"
           transform="translate(77.1201,418.6938)"
           id="g4451"><path
             sodipodi:nodetypes="ccssscccssccssscccccscscc"
             d="m 312.90171,7.82095 c 8.968,-0.28 13.938,-5.109 13.938,-5.109 3.228,-2.755 5.257,-6.339 5.257,-10.038 0,-9.731 -13.013,-17.354 -29.627,-17.354 -16.613,0 -29.627,7.623 -29.627,17.354 0,4.889 3.248,9.082 8.883,12.002 l 2.326,1.077 c 2.299,0.949 5.818,1.893 7.781,2.271 1.842,0.354 4.143,0.725 5.323,0.725 0.732,0 1.799,-0.633 1.883,-1.748 0.08,-1.062 -0.436,-1.961 -1.301,-2.144 -0.807,-0.171 -2.181,-0.547 -2.181,-0.547 -5.829,-1.806 -9.368,-6.086 -9.368,-11.511 0,-7.364 7.304,-13.354 16.281,-13.354 8.977,0 16.281,5.99 16.281,13.354 0,4.176 -1.796,10.325 -4.726,10.998 -0.285,0.023 -0.572,0.039 -0.861,0.048 -2.934,-0.225 -4.841,-0.942 -5.67,-2.134 -1.261,-1.809 -0.282,-5.183 0.58,-8.161 0.592,-2.04 1.15,-3.966 1.115,-5.654 -0.078,-3.636 -3.107,-6.275 -7.205,-6.275 -4.047,0 -7.166,2.681 -7.584,6.52 -0.541,4.956 1.084,9.954 4.457,13.715 0.765,0.853 1.6,1.621 2.492,2.301 0,0 4.886,3.872 11.553,3.664"
             style="fill:#55bf55;fill-opacity:1;fill-rule:nonzero;stroke:none"
             id="path4453"
             inkscape:connector-curvature="0"
             inkscape:export-xdpi="1215.11"
             inkscape:export-ydpi="1215.11" /></g><g
           style="fill:#55bf55;fill-opacity:1"
           transform="translate(66.6885,370.4629)"
           id="g4455"><path
             sodipodi:nodetypes="cccccccscccccc"
             d="m 312.90171,7.82095 0,0 c -0.67,0 -1.279,0.382 -1.573,0.981 l -4.601,9.422 c -0.277,0.569 -0.226,1.243 0.133,1.762 0.36,0.522 0.98,0.805 1.603,0.748 0.418,-0.039 0.84,-0.084 1.264,-0.131 1.047,-0.115 2.131,-0.232 3.174,-0.232 1.043,0 2.127,0.117 3.174,0.232 0.424,0.047 0.846,0.092 1.264,0.131 0.624,0.058 1.243,-0.226 1.603,-0.748 0.359,-0.519 0.41,-1.193 0.132,-1.762 l -4.601,-9.422 c -0.294,-0.599 -0.904,-0.981 -1.572,-0.981"
             style="fill:#55bf55;fill-opacity:1;fill-rule:nonzero;stroke:none"
             id="path4457"
             inkscape:connector-curvature="0"
             inkscape:export-xdpi="1215.11"
             inkscape:export-ydpi="1215.11" /></g><g
           style="fill:#55bf55;fill-opacity:1"
           transform="translate(120.394,402.145)"
           id="g4459" /><g
           style="fill:#55bf55;fill-opacity:1"
           transform="translate(169.3188,407.6592)"
           id="g4463" /><g
           style="fill:#55bf55;fill-opacity:1"
           transform="translate(188.791,393.4907)"
           id="g4467" /><g
           style="fill:#55bf55;fill-opacity:1"
           transform="translate(219.71,414.2896)"
           id="g4471" /><g
           style="fill:#55bf55;fill-opacity:1"
           transform="translate(248.1157,393.9795)"
           id="g4475" /><g
           style="fill:#55bf55;fill-opacity:1"
           transform="translate(272.7524,428.7368)"
           id="g4479" /><g
           style="fill:#55bf55;fill-opacity:1"
           transform="translate(287.7588,395.375)"
           id="g4483" /><g
           style="fill:#55bf55;fill-opacity:1"
           transform="translate(332.1479,407.6592)"
           id="g4487" /><g
           style="fill:#55bf55;fill-opacity:1"
           transform="translate(346.1763,414.2896)"
           id="g4491" /><g
           style="fill:#55bf55;fill-opacity:1"
           transform="translate(383.0972,403.1226)"
           id="g4495" /><g
           style="fill:#55bf55;fill-opacity:1"
           transform="translate(402.9873,393.4907)"
           id="g4499" /><g
           style="fill:#55bf55;fill-opacity:1"
           transform="translate(437.8848,395.375)"
           id="g4503" /><g
           style="fill:#55bf55;fill-opacity:1"
           transform="translate(471.3857,413.103)"
           id="g4507" /><g
           style="fill:#55bf55;fill-opacity:1"
           transform="translate(525.0576,401.4473)"
           id="g4511" /><g
           style="fill:#55bf55;fill-opacity:1"
           transform="translate(535.876,414.2896)"
           id="g4515" /><g
           style="fill:#55bf55;fill-opacity:1"
           transform="translate(579.1475,401.4473)"
           id="g4519" /><g
           style="fill:#55bf55;fill-opacity:1"
           transform="translate(599.1094,416.5229)"
           id="g4523" /><g
           style="fill:#55bf55;fill-opacity:1"
           transform="translate(626.3291,393.9795)"
           id="g4527" /><g
           style="fill:#55bf55;fill-opacity:1"
           transform="translate(658.5039,403.1226)"
           id="g4531" /><g
           style="fill:#55bf55;fill-opacity:1"
           transform="translate(678.1846,395.375)"
           id="g4535" /><g
           style="fill:#55bf55;fill-opacity:1"
           transform="translate(711.6865,413.103)"
           id="g4539" /><g
           style="fill:#55bf55;fill-opacity:1"
           transform="translate(747.5605,374.1582)"
           id="g4543" /></g></g><g
       inkscape:export-ydpi="121.2"
       inkscape:export-xdpi="121.2"
       style="fill:#a23f3e;fill-opacity:1"
       id="g4547"
       transform="translate(1.7250894,164.54982)"><g
         style="fill:#a23f3e;fill-opacity:1"
         clip-path="url(#clipPath16)"
         id="g4549"><g
           style="fill:#a23f3e;fill-opacity:1"
           transform="translate(77.1201,418.6938)"
           id="g4551" /><g
           style="fill:#a23f3e;fill-opacity:1"
           transform="translate(66.6885,370.4629)"
           id="g4555" /><g
           style="fill:#a23f3e;fill-opacity:1"
           transform="translate(120.394,402.145)"
           id="g4559"><path
             sodipodi:nodetypes="cscsscssssssc"
             inkscape:connector-curvature="0"
             id="path4561"
             style="fill:#a23f3e;fill-opacity:1;fill-rule:nonzero;stroke:none"
             d="m -75.2,0 c 0,8.725 6.91,15.913 15.704,15.913 3.489,0 8.235,-0.977 8.445,-2.582 0.139,-1.536 0.07,-3.211 0.07,-4.118 0,-0.977 -0.21,-1.465 -0.559,-1.465 -0.698,0 -1.466,1.325 -1.675,1.605 -2.373,3.21 -5.444,4.257 -8.654,4.257 -5.933,0 -8.236,-6.142 -8.236,-11.167 0,-7.538 4.467,-13.749 12.354,-13.749 5.444,0 8.514,4.048 9.561,4.048 0.21,0 0.558,-0.21 0.558,-0.419 0,-1.117 -4.187,-7.119 -13.749,-7.119 -8.026,0 -13.819,7.049 -13.819,14.796" /></g><g
           style="fill:#a23f3e;fill-opacity:1"
           transform="translate(169.3188,407.6592)"
           id="g4563"><path
             sodipodi:nodetypes="ssscscssssssssc"
             inkscape:connector-curvature="0"
             id="path4565"
             style="fill:#a23f3e;fill-opacity:1;fill-rule:nonzero;stroke:none"
             d="m -75.2,0 c 0.977,0 1.396,0.349 1.396,1.396 0,3.908 -3.909,7.398 -7.747,7.398 -4.327,0 -7.399,-4.956 -7.399,-8.794 z m -13.75,-1.885 c 0,-11.515 6.98,-14.935 11.237,-14.935 6.003,0 8.306,3.629 9.841,3.629 0.279,0 0.279,-0.279 0.279,-0.489 0,-1.605 -6.071,-6.63 -12.353,-6.63 -10.469,0 -14.098,9.701 -14.098,14.308 0,8.933 4.955,16.401 13.679,16.401 8.585,0 12.354,-8.305 12.354,-11.097 0,-1.257 -0.768,-1.187 -2.373,-1.187 z" /></g><g
           style="fill:#a23f3e;fill-opacity:1"
           transform="translate(188.791,393.4907)"
           id="g4567"><path
             sodipodi:nodetypes="ssssssssscsscssssssssssscs"
             inkscape:connector-curvature="0"
             id="path4569"
             style="fill:#a23f3e;fill-opacity:1;fill-rule:nonzero;stroke:none"
             d="m -75.2,0 c 0,-4.816 6.142,-2.792 6.142,-4.676 0,-0.838 -0.489,-0.977 -1.536,-0.977 -1.186,0 -2.582,0.279 -6.63,0.279 -3.699,0 -5.095,-0.279 -5.933,-0.279 -0.907,0 -1.256,0.139 -1.256,0.837 0,1.396 4.118,0 4.118,4.537 l 0,17.309 c 0,4.187 -5.165,2.373 -5.165,3.839 0,0.418 0.28,0.697 0.629,0.767 5.792,1.257 7.188,3.49 8.794,3.49 0.418,0 0.837,-0.419 0.837,-1.117 l 0,-4.606 c -0.14,-0.838 3.35,5.164 10.12,5.164 9.352,0 11.377,-7.747 11.377,-13.051 l 0,-11.516 c 0,-4.816 5.443,-2.792 5.443,-4.676 0,-0.838 -0.488,-0.977 -1.186,-0.977 -0.907,0 -2.652,0.279 -6.072,0.279 -2.652,0 -4.118,-0.279 -5.025,-0.279 -0.907,0 -1.257,0.139 -1.257,0.837 0,1.396 3.001,0 3.001,4.537 l 0,13.051 c 0,3.49 -2.512,8.725 -8.165,8.725 -5.863,0 -8.306,-4.328 -8.236,-5.444 z" /></g><g
           style="fill:#a23f3e;fill-opacity:1"
           transform="translate(219.71,414.2896)"
           id="g4571"><path
             sodipodi:nodetypes="cscscsssccccsssssc"
             inkscape:connector-curvature="0"
             id="path4573"
             style="fill:#a23f3e;fill-opacity:1;fill-rule:nonzero;stroke:none"
             d="m -75.2,0 c -3.28,0 -3.769,0 -3.769,0.488 0,0.559 1.745,1.745 5.304,5.654 1.396,1.675 2.094,3.21 2.653,3.21 0.977,0 0.907,-1.466 0.907,-6.491 l 7.677,0 c 1.745,0 2.513,1.187 2.722,1.187 0.349,0 0.488,-0.349 0.488,-0.559 0,-0.279 -0.209,-0.628 -0.418,-0.977 L -61.032,0 l -9.073,0 0,-20.31 c 0.139,-2.862 2.093,-4.188 4.885,-4.188 3.699,0 4.746,1.605 5.933,1.605 0.279,0 0.558,-0.069 0.558,-0.628 0,-1.046 -3.769,-3.419 -8.654,-3.419 -3.211,0 -7.817,0.907 -7.817,8.095 z" /></g><g
           style="fill:#a23f3e;fill-opacity:1"
           transform="translate(248.1157,393.9795)"
           id="g4575"><path
             sodipodi:nodetypes="ssssssssscssccssssss"
             inkscape:connector-curvature="0"
             id="path4577"
             style="fill:#a23f3e;fill-opacity:1;fill-rule:nonzero;stroke:none"
             d="m -75.2,0 c 0,-6.491 6.211,-3.141 6.211,-5.374 0,-0.628 -0.348,-0.768 -1.116,-0.768 -0.977,0 -2.652,0.279 -6.561,0.279 -4.676,0 -5.932,-0.279 -6.421,-0.279 -0.558,0 -0.767,0.209 -0.767,0.628 0,1.466 3.559,1.187 3.559,4.048 l 0,18.007 c 0,4.188 -5.025,2.373 -5.025,3.839 0,0.418 0.558,0.698 0.907,0.767 5.374,1.257 6.77,3.49 8.376,3.49 0.418,0 0.837,-0.419 0.837,-1.116 l 0,-5.235 0.14,0 c 1.465,2.024 3.978,5.793 6.909,5.793 1.466,0 4.606,-1.815 4.606,-3.141 0,-1.047 -1.675,-3.141 -2.512,-3.141 -1.326,0 -2.094,1.605 -4.606,1.605 -2.862,0 -4.537,-3.21 -4.537,-4.117 z" /></g><g
           style="fill:#a23f3e;fill-opacity:1"
           transform="translate(272.7524,428.7368)"
           id="g4579"><path
             sodipodi:nodetypes="cssscsscssssssscss"
             inkscape:connector-curvature="0"
             id="path4581"
             style="fill:#a23f3e;fill-opacity:1;fill-rule:nonzero;stroke:none"
             d="m -75.2,0 c 0,-0.838 -2.024,-3.629 -2.931,-3.629 -0.838,0 -2.931,2.861 -2.931,3.629 0,0.768 2.093,3.699 2.931,3.699 0.907,0 2.931,-2.862 2.931,-3.699 m -5.444,-18.216 c 0,4.187 -3.838,2.373 -3.838,3.839 0,0.418 0.279,0.697 0.628,0.767 4.466,1.256 5.862,3.49 7.468,3.49 0.418,0 0.837,-0.419 0.837,-1.117 l 0,-25.056 c 0,-3.56 5.514,-2.024 5.514,-3.838 0,-0.559 -0.419,-0.768 -1.326,-0.768 -1.466,0 -3.63,0.279 -6.491,0.279 -2.233,0 -4.048,-0.279 -4.816,-0.279 -0.558,0 -0.977,0.069 -1.047,0.768 0,1.744 3.071,-0.908 3.071,5.443 z" /></g><g
           style="fill:#a23f3e;fill-opacity:1"
           transform="translate(287.7588,395.375)"
           id="g4583"><path
             sodipodi:nodetypes="sssscsssssssssscsscssscs"
             inkscape:connector-curvature="0"
             id="path4585"
             style="fill:#a23f3e;fill-opacity:1;fill-rule:nonzero;stroke:none"
             d="m -75.2,0 c 0,-3.769 4.327,-6.351 9.073,-6.351 6.421,0 9.143,6.142 9.143,11.656 0,6.351 -3.211,14.098 -10.609,14.098 -7.119,0 -7.677,-5.374 -7.607,-5.514 z m 0,-16.262 c 0,-4.606 6.421,-2.861 6.421,-4.536 0,-0.838 -0.489,-0.908 -1.326,-0.908 -0.907,0 -2.583,0.28 -7.259,0.28 -2.722,0 -4.746,-0.28 -5.513,-0.28 -0.629,0 -1.047,0.14 -1.047,0.768 0,1.815 3.629,0.698 3.629,4.956 l 0,31.128 c 0,4.187 -4.746,2.373 -4.746,3.838 0,0.419 0.279,0.698 0.628,0.768 5.374,1.256 6.77,3.49 8.375,3.49 0.419,0 0.838,-0.419 0.838,-1.117 l 0,-4.048 c 4.257,3.978 7.677,4.606 9.562,4.606 8.235,0 12.493,-6.491 12.493,-14.168 0,-6.421 -4.048,-16.541 -14.867,-16.541 -2.512,0 -4.955,0.768 -7.188,1.884 z" /></g><g
           style="fill:#a23f3e;fill-opacity:1"
           transform="translate(332.1479,407.6592)"
           id="g4587"><path
             sodipodi:nodetypes="ssscscssssssssc"
             inkscape:connector-curvature="0"
             id="path4589"
             style="fill:#a23f3e;fill-opacity:1;fill-rule:nonzero;stroke:none"
             d="m -75.2,0 c 0.977,0 1.396,0.349 1.396,1.396 0,3.908 -3.909,7.398 -7.747,7.398 -4.327,0 -7.399,-4.956 -7.399,-8.794 z m -13.75,-1.885 c 0,-11.515 6.98,-14.935 11.237,-14.935 6.003,0 8.306,3.629 9.841,3.629 0.279,0 0.279,-0.279 0.279,-0.489 0,-1.605 -6.071,-6.63 -12.353,-6.63 -10.469,0 -14.098,9.701 -14.098,14.308 0,8.933 4.955,16.401 13.679,16.401 8.585,0 12.354,-8.305 12.354,-11.097 0,-1.257 -0.768,-1.187 -2.373,-1.187 z" /></g><g
           style="fill:#a23f3e;fill-opacity:1"
           transform="translate(346.1763,414.2896)"
           id="g4591"><path
             sodipodi:nodetypes="cscscsssccccsssssc"
             inkscape:connector-curvature="0"
             id="path4593"
             style="fill:#a23f3e;fill-opacity:1;fill-rule:nonzero;stroke:none"
             d="m -75.2,0 c -3.28,0 -3.769,0 -3.769,0.488 0,0.559 1.745,1.745 5.304,5.654 1.396,1.675 2.094,3.21 2.653,3.21 0.977,0 0.907,-1.466 0.907,-6.491 l 7.677,0 c 1.745,0 2.513,1.187 2.722,1.187 0.349,0 0.488,-0.349 0.488,-0.559 0,-0.279 -0.209,-0.628 -0.418,-0.977 L -61.032,0 l -9.073,0 0,-20.31 c 0.139,-2.862 2.093,-4.188 4.885,-4.188 3.699,0 4.746,1.605 5.933,1.605 0.279,0 0.558,-0.069 0.558,-0.628 0,-1.046 -3.769,-3.419 -8.654,-3.419 -3.211,0 -7.817,0.907 -7.817,8.095 z" /></g><g
           style="fill:#a23f3e;fill-opacity:1"
           transform="translate(383.0972,403.1226)"
           id="g4595"><path
             sodipodi:nodetypes="cssscsssssccsssssscsscs"
             inkscape:connector-curvature="0"
             id="path4597"
             style="fill:#a23f3e;fill-opacity:1;fill-rule:nonzero;stroke:none"
             d="m -75.2,0 c -4.467,-0.978 -12.982,-2.094 -12.982,-8.236 0,-3.978 2.024,-5.514 5.723,-5.514 2.513,0 7.259,1.955 7.259,5.654 z m 0,7.049 c 0,3.629 -2.861,6.072 -7.188,6.072 -3.351,0 -6.073,-0.349 -6.073,-4.187 0,-1.048 0.419,-2.095 0.419,-2.862 0,-0.768 -0.21,-1.326 -1.535,-1.326 -1.187,0 -3.281,1.046 -3.281,2.303 0.07,3.21 3.978,8.096 11.725,7.887 4.328,0 11.028,-1.257 11.028,-7.189 l 0,-14.447 c 0,-2.373 -0.628,-6.491 3.001,-6.491 0.279,0 0.907,0.139 1.186,0.139 0.35,0 0.907,0 0.907,-0.488 0,-1.466 -3.07,-1.745 -4.047,-1.745 -2.722,0 -4.537,1.256 -5.444,3.559 -2.931,-2.512 -6.77,-4.047 -10.678,-4.047 -4.537,0 -7.539,1.674 -7.539,6.63 0,3.699 1.187,8.096 17.519,10.818 z" /></g><g
           style="fill:#a23f3e;fill-opacity:1"
           transform="translate(402.9873,393.4907)"
           id="g4599"><path
             sodipodi:nodetypes="ssssssssscsss"
             inkscape:connector-curvature="0"
             id="path4601"
             style="fill:#a23f3e;fill-opacity:1;fill-rule:nonzero;stroke:none"
             d="m -75.2,0 c 0,-4.816 5.793,-2.792 5.793,-4.676 0,-0.838 -0.559,-0.977 -1.605,-0.977 -0.977,0 -3.141,0.279 -6.421,0.279 -3.42,0 -4.746,-0.279 -5.444,-0.279 -0.558,0 -0.837,0.279 -0.837,0.907 0,1.047 3.419,0.838 3.419,3.839 l 0,39.433 c 0,4.188 -4.745,2.373 -4.745,3.839 0,0.419 0.279,0.698 0.628,0.768 5.373,1.256 6.77,3.489 8.374,3.489 0.419,0 0.838,-0.418 0.838,-1.117 z" /></g><g
           style="fill:#a23f3e;fill-opacity:1"
           transform="translate(437.8848,395.375)"
           id="g4603" /><g
           style="fill:#a23f3e;fill-opacity:1"
           transform="translate(471.3857,413.103)"
           id="g4607" /><g
           style="fill:#a23f3e;fill-opacity:1"
           transform="translate(525.0576,401.4473)"
           id="g4611" /><g
           style="fill:#a23f3e;fill-opacity:1"
           transform="translate(535.876,414.2896)"
           id="g4615" /><g
           style="fill:#a23f3e;fill-opacity:1"
           transform="translate(579.1475,401.4473)"
           id="g4619" /><g
           style="fill:#a23f3e;fill-opacity:1"
           transform="translate(599.1094,416.5229)"
           id="g4623" /><g
           style="fill:#a23f3e;fill-opacity:1"
           transform="translate(626.3291,393.9795)"
           id="g4627" /><g
           style="fill:#a23f3e;fill-opacity:1"
           transform="translate(658.5039,403.1226)"
           id="g4631" /><g
           style="fill:#a23f3e;fill-opacity:1"
           transform="translate(678.1846,395.375)"
           id="g4635" /><g
           style="fill:#a23f3e;fill-opacity:1"
           transform="translate(711.6865,413.103)"
           id="g4639" /><g
           style="fill:#a23f3e;fill-opacity:1"
           transform="translate(747.5605,374.1582)"
           id="g4643" /></g></g><g
       transform="translate(0,168)"
       id="g4647"
       style="fill:#55bf55;fill-opacity:1"
       inkscape:export-xdpi="121.2"
       inkscape:export-ydpi="121.2"><g
         id="g4649"
         clip-path="url(#clipPath16)"
         style="fill:#55bf55;fill-opacity:1"><g
           id="g4651"
           transform="translate(77.1201,418.6938)"
           style="fill:#55bf55;fill-opacity:1" /><g
           id="g4655"
           transform="translate(66.6885,370.4629)"
           style="fill:#55bf55;fill-opacity:1" /><g
           id="g4659"
           transform="translate(120.394,402.145)"
           style="fill:#55bf55;fill-opacity:1"><path
             d="m -75.2,0 c 0,8.725 6.91,15.913 15.704,15.913 3.489,0 8.235,-0.977 8.445,-2.582 0.139,-1.536 0.07,-3.211 0.07,-4.118 0,-0.977 -0.21,-1.465 -0.559,-1.465 -0.698,0 -1.466,1.325 -1.675,1.605 -2.373,3.21 -5.444,4.257 -8.654,4.257 -5.933,0 -8.236,-6.142 -8.236,-11.167 0,-7.538 4.467,-13.749 12.354,-13.749 5.444,0 8.514,4.048 9.561,4.048 0.21,0 0.558,-0.21 0.558,-0.419 0,-1.117 -4.187,-7.119 -13.749,-7.119 -8.026,0 -13.819,7.049 -13.819,14.796"
             style="fill:#55bf55;fill-opacity:1;fill-rule:nonzero;stroke:none"
             id="path4661"
             inkscape:connector-curvature="0"
             sodipodi:nodetypes="cscsscssssssc" /></g><g
           id="g4663"
           transform="translate(169.3188,407.6592)"
           style="fill:#55bf55;fill-opacity:1"><path
             d="m -75.2,0 c 0.977,0 1.396,0.349 1.396,1.396 0,3.908 -3.909,7.398 -7.747,7.398 -4.327,0 -7.399,-4.956 -7.399,-8.794 z m -13.75,-1.885 c 0,-11.515 6.98,-14.935 11.237,-14.935 6.003,0 8.306,3.629 9.841,3.629 0.279,0 0.279,-0.279 0.279,-0.489 0,-1.605 -6.071,-6.63 -12.353,-6.63 -10.469,0 -14.098,9.701 -14.098,14.308 0,8.933 4.955,16.401 13.679,16.401 8.585,0 12.354,-8.305 12.354,-11.097 0,-1.257 -0.768,-1.187 -2.373,-1.187 z"
             style="fill:#55bf55;fill-opacity:1;fill-rule:nonzero;stroke:none"
             id="path4665"
             inkscape:connector-curvature="0"
             sodipodi:nodetypes="ssscscssssssssc" /></g><g
           id="g4667"
           transform="translate(188.791,393.4907)"
           style="fill:#55bf55;fill-opacity:1"><path
             d="m -75.2,0 c 0,-4.816 6.142,-2.792 6.142,-4.676 0,-0.838 -0.489,-0.977 -1.536,-0.977 -1.186,0 -2.582,0.279 -6.63,0.279 -3.699,0 -5.095,-0.279 -5.933,-0.279 -0.907,0 -1.256,0.139 -1.256,0.837 0,1.396 4.118,0 4.118,4.537 l 0,17.309 c 0,4.187 -5.165,2.373 -5.165,3.839 0,0.418 0.28,0.697 0.629,0.767 5.792,1.257 7.188,3.49 8.794,3.49 0.418,0 0.837,-0.419 0.837,-1.117 l 0,-4.606 c -0.14,-0.838 3.35,5.164 10.12,5.164 9.352,0 11.377,-7.747 11.377,-13.051 l 0,-11.516 c 0,-4.816 5.443,-2.792 5.443,-4.676 0,-0.838 -0.488,-0.977 -1.186,-0.977 -0.907,0 -2.652,0.279 -6.072,0.279 -2.652,0 -4.118,-0.279 -5.025,-0.279 -0.907,0 -1.257,0.139 -1.257,0.837 0,1.396 3.001,0 3.001,4.537 l 0,13.051 c 0,3.49 -2.512,8.725 -8.165,8.725 -5.863,0 -8.306,-4.328 -8.236,-5.444 z"
             style="fill:#55bf55;fill-opacity:1;fill-rule:nonzero;stroke:none"
             id="path4669"
             inkscape:connector-curvature="0"
             sodipodi:nodetypes="ssssssssscsscssssssssssscs" /></g><g
           id="g4671"
           transform="translate(219.71,414.2896)"
           style="fill:#55bf55;fill-opacity:1"><path
             d="m -75.2,0 c -3.28,0 -3.769,0 -3.769,0.488 0,0.559 1.745,1.745 5.304,5.654 1.396,1.675 2.094,3.21 2.653,3.21 0.977,0 0.907,-1.466 0.907,-6.491 l 7.677,0 c 1.745,0 2.513,1.187 2.722,1.187 0.349,0 0.488,-0.349 0.488,-0.559 0,-0.279 -0.209,-0.628 -0.418,-0.977 L -61.032,0 l -9.073,0 0,-20.31 c 0.139,-2.862 2.093,-4.188 4.885,-4.188 3.699,0 4.746,1.605 5.933,1.605 0.279,0 0.558,-0.069 0.558,-0.628 0,-1.046 -3.769,-3.419 -8.654,-3.419 -3.211,0 -7.817,0.907 -7.817,8.095 z"
             style="fill:#55bf55;fill-opacity:1;fill-rule:nonzero;stroke:none"
             id="path4673"
             inkscape:connector-curvature="0"
             sodipodi:nodetypes="cscscsssccccsssssc" /></g><g
           id="g4675"
           transform="translate(248.1157,393.9795)"
           style="fill:#55bf55;fill-opacity:1"><path
             d="m -75.2,0 c 0,-6.491 6.211,-3.141 6.211,-5.374 0,-0.628 -0.348,-0.768 -1.116,-0.768 -0.977,0 -2.652,0.279 -6.561,0.279 -4.676,0 -5.932,-0.279 -6.421,-0.279 -0.558,0 -0.767,0.209 -0.767,0.628 0,1.466 3.559,1.187 3.559,4.048 l 0,18.007 c 0,4.188 -5.025,2.373 -5.025,3.839 0,0.418 0.558,0.698 0.907,0.767 5.374,1.257 6.77,3.49 8.376,3.49 0.418,0 0.837,-0.419 0.837,-1.116 l 0,-5.235 0.14,0 c 1.465,2.024 3.978,5.793 6.909,5.793 1.466,0 4.606,-1.815 4.606,-3.141 0,-1.047 -1.675,-3.141 -2.512,-3.141 -1.326,0 -2.094,1.605 -4.606,1.605 -2.862,0 -4.537,-3.21 -4.537,-4.117 z"
             style="fill:#55bf55;fill-opacity:1;fill-rule:nonzero;stroke:none"
             id="path4677"
             inkscape:connector-curvature="0"
             sodipodi:nodetypes="ssssssssscssccssssss" /></g><g
           id="g4679"
           transform="translate(272.7524,428.7368)"
           style="fill:#55bf55;fill-opacity:1"><path
             d="m -75.2,0 c 0,-0.838 -2.024,-3.629 -2.931,-3.629 -0.838,0 -2.931,2.861 -2.931,3.629 0,0.768 2.093,3.699 2.931,3.699 0.907,0 2.931,-2.862 2.931,-3.699 m -5.444,-18.216 c 0,4.187 -3.838,2.373 -3.838,3.839 0,0.418 0.279,0.697 0.628,0.767 4.466,1.256 5.862,3.49 7.468,3.49 0.418,0 0.837,-0.419 0.837,-1.117 l 0,-25.056 c 0,-3.56 5.514,-2.024 5.514,-3.838 0,-0.559 -0.419,-0.768 -1.326,-0.768 -1.466,0 -3.63,0.279 -6.491,0.279 -2.233,0 -4.048,-0.279 -4.816,-0.279 -0.558,0 -0.977,0.069 -1.047,0.768 0,1.744 3.071,-0.908 3.071,5.443 z"
             style="fill:#55bf55;fill-opacity:1;fill-rule:nonzero;stroke:none"
             id="path4681"
             inkscape:connector-curvature="0"
             sodipodi:nodetypes="cssscsscssssssscss" /></g><g
           id="g4683"
           transform="translate(287.7588,395.375)"
           style="fill:#55bf55;fill-opacity:1"><path
             d="m -75.2,0 c 0,-3.769 4.327,-6.351 9.073,-6.351 6.421,0 9.143,6.142 9.143,11.656 0,6.351 -3.211,14.098 -10.609,14.098 -7.119,0 -7.677,-5.374 -7.607,-5.514 z m 0,-16.262 c 0,-4.606 6.421,-2.861 6.421,-4.536 0,-0.838 -0.489,-0.908 -1.326,-0.908 -0.907,0 -2.583,0.28 -7.259,0.28 -2.722,0 -4.746,-0.28 -5.513,-0.28 -0.629,0 -1.047,0.14 -1.047,0.768 0,1.815 3.629,0.698 3.629,4.956 l 0,31.128 c 0,4.187 -4.746,2.373 -4.746,3.838 0,0.419 0.279,0.698 0.628,0.768 5.374,1.256 6.77,3.49 8.375,3.49 0.419,0 0.838,-0.419 0.838,-1.117 l 0,-4.048 c 4.257,3.978 7.677,4.606 9.562,4.606 8.235,0 12.493,-6.491 12.493,-14.168 0,-6.421 -4.048,-16.541 -14.867,-16.541 -2.512,0 -4.955,0.768 -7.188,1.884 z"
             style="fill:#55bf55;fill-opacity:1;fill-rule:nonzero;stroke:none"
             id="path4685"
             inkscape:connector-curvature="0"
             sodipodi:nodetypes="sssscsssssssssscsscssscs" /></g><g
           id="g4687"
           transform="translate(332.1479,407.6592)"
           style="fill:#55bf55;fill-opacity:1"><path
             d="m -75.2,0 c 0.977,0 1.396,0.349 1.396,1.396 0,3.908 -3.909,7.398 -7.747,7.398 -4.327,0 -7.399,-4.956 -7.399,-8.794 z m -13.75,-1.885 c 0,-11.515 6.98,-14.935 11.237,-14.935 6.003,0 8.306,3.629 9.841,3.629 0.279,0 0.279,-0.279 0.279,-0.489 0,-1.605 -6.071,-6.63 -12.353,-6.63 -10.469,0 -14.098,9.701 -14.098,14.308 0,8.933 4.955,16.401 13.679,16.401 8.585,0 12.354,-8.305 12.354,-11.097 0,-1.257 -0.768,-1.187 -2.373,-1.187 z"
             style="fill:#55bf55;fill-opacity:1;fill-rule:nonzero;stroke:none"
             id="path4689"
             inkscape:connector-curvature="0"
             sodipodi:nodetypes="ssscscssssssssc" /></g><g
           id="g4691"
           transform="translate(346.1763,414.2896)"
           style="fill:#55bf55;fill-opacity:1"><path
             d="m -75.2,0 c -3.28,0 -3.769,0 -3.769,0.488 0,0.559 1.745,1.745 5.304,5.654 1.396,1.675 2.094,3.21 2.653,3.21 0.977,0 0.907,-1.466 0.907,-6.491 l 7.677,0 c 1.745,0 2.513,1.187 2.722,1.187 0.349,0 0.488,-0.349 0.488,-0.559 0,-0.279 -0.209,-0.628 -0.418,-0.977 L -61.032,0 l -9.073,0 0,-20.31 c 0.139,-2.862 2.093,-4.188 4.885,-4.188 3.699,0 4.746,1.605 5.933,1.605 0.279,0 0.558,-0.069 0.558,-0.628 0,-1.046 -3.769,-3.419 -8.654,-3.419 -3.211,0 -7.817,0.907 -7.817,8.095 z"
             style="fill:#55bf55;fill-opacity:1;fill-rule:nonzero;stroke:none"
             id="path4693"
             inkscape:connector-curvature="0"
             sodipodi:nodetypes="cscscsssccccsssssc" /></g><g
           id="g4695"
           transform="translate(383.0972,403.1226)"
           style="fill:#55bf55;fill-opacity:1"><path
             d="m -75.2,0 c -4.467,-0.978 -12.982,-2.094 -12.982,-8.236 0,-3.978 2.024,-5.514 5.723,-5.514 2.513,0 7.259,1.955 7.259,5.654 z m 0,7.049 c 0,3.629 -2.861,6.072 -7.188,6.072 -3.351,0 -6.073,-0.349 -6.073,-4.187 0,-1.048 0.419,-2.095 0.419,-2.862 0,-0.768 -0.21,-1.326 -1.535,-1.326 -1.187,0 -3.281,1.046 -3.281,2.303 0.07,3.21 3.978,8.096 11.725,7.887 4.328,0 11.028,-1.257 11.028,-7.189 l 0,-14.447 c 0,-2.373 -0.628,-6.491 3.001,-6.491 0.279,0 0.907,0.139 1.186,0.139 0.35,0 0.907,0 0.907,-0.488 0,-1.466 -3.07,-1.745 -4.047,-1.745 -2.722,0 -4.537,1.256 -5.444,3.559 -2.931,-2.512 -6.77,-4.047 -10.678,-4.047 -4.537,0 -7.539,1.674 -7.539,6.63 0,3.699 1.187,8.096 17.519,10.818 z"
             style="fill:#55bf55;fill-opacity:1;fill-rule:nonzero;stroke:none"
             id="path4697"
             inkscape:connector-curvature="0"
             sodipodi:nodetypes="cssscsssssccsssssscsscs" /></g><g
           id="g4699"
           transform="translate(402.9873,393.4907)"
           style="fill:#55bf55;fill-opacity:1"><path
             d="m -75.2,0 c 0,-4.816 5.793,-2.792 5.793,-4.676 0,-0.838 -0.559,-0.977 -1.605,-0.977 -0.977,0 -3.141,0.279 -6.421,0.279 -3.42,0 -4.746,-0.279 -5.444,-0.279 -0.558,0 -0.837,0.279 -0.837,0.907 0,1.047 3.419,0.838 3.419,3.839 l 0,39.433 c 0,4.188 -4.745,2.373 -4.745,3.839 0,0.419 0.279,0.698 0.628,0.768 5.373,1.256 6.77,3.489 8.374,3.489 0.419,0 0.838,-0.418 0.838,-1.117 z"
             style="fill:#55bf55;fill-opacity:1;fill-rule:nonzero;stroke:none"
             id="path4701"
             inkscape:connector-curvature="0"
             sodipodi:nodetypes="ssssssssscsss" /></g><g
           id="g4703"
           transform="translate(437.8848,395.375)"
           style="fill:#55bf55;fill-opacity:1" /><g
           id="g4707"
           transform="translate(471.3857,413.103)"
           style="fill:#55bf55;fill-opacity:1" /><g
           id="g4711"
           transform="translate(525.0576,401.4473)"
           style="fill:#55bf55;fill-opacity:1" /><g
           id="g4715"
           transform="translate(535.876,414.2896)"
           style="fill:#55bf55;fill-opacity:1" /><g
           id="g4719"
           transform="translate(579.1475,401.4473)"
           style="fill:#55bf55;fill-opacity:1" /><g
           id="g4723"
           transform="translate(599.1094,416.5229)"
           style="fill:#55bf55;fill-opacity:1" /><g
           id="g4727"
           transform="translate(626.3291,393.9795)"
           style="fill:#55bf55;fill-opacity:1" /><g
           id="g4731"
           transform="translate(658.5039,403.1226)"
           style="fill:#55bf55;fill-opacity:1" /><g
           id="g4735"
           transform="translate(678.1846,395.375)"
           style="fill:#55bf55;fill-opacity:1" /><g
           id="g4739"
           transform="translate(711.6865,413.103)"
           style="fill:#55bf55;fill-opacity:1" /><g
           id="g4743"
           transform="translate(747.5605,374.1582)"
           style="fill:#55bf55;fill-opacity:1" /></g></g></g></svg>